Filename:
Rabbit Hole DVDSCR XViD - IMAGiNE
 
http://www.imdb.com/title/tt0935075/

DETAILS:

Video
ID                               : 0
Format                           : MPEG-4 Visual
Format profile                   : Advanced Simple@L5
Format settings, BVOP            : Yes
Format settings, QPel            : No
Format settings, GMC             : No warppoints
Format settings, Matrix          : Default (H.263)
Muxing mode                      : Packed bitstream
Codec ID                         : XVID
Codec ID/Hint                    : XviD
Duration                         : 1h 31mn
Bit rate                         : 1 054 Kbps
Width                            : 624 pixels
Height                           : 336 pixels
Display aspect ratio             : 1.857
Frame rate                       : 23.976 fps
Color space                      : YUV
Chroma subsampling               : 4:2:0
Bit depth                        : 8 bits
Scan type                        : Progressive
Bits/(Pixel*Frame)               : 0.210
Stream size                      : 689 MiB (88%)
Writing library                  : XviD 1.1.2 (UTC 2006-11-01)

Audio
ID                               : 1
Format                           : MPEG Audio
Format version                   : Version 1
Format profile                   : Layer 3
Mode                             : Joint stereo
Mode extension                   : MS Stereo
Codec ID                         : 55
Codec ID/Hint                    : MP3
Duration                         : 1h 31mn
Bit rate mode                    : Variable
Bit rate                         : 133 Kbps
Minimum bit rate                 : 32.0 Kbps
Channel(s)                       : 2 channels
Sampling rate                    : 48.0 KHz
Stream size                      : 86.8 MiB (11%)
Alignment                        : Aligned on interleaves
Interleave, duration             : 24 ms (0.58 video frame)
Interleave, preload duration     : 138 ms
Writing library                  : LAME3.95
Encoding settings                : -m j -V 3 -q 3 -lowpass 18 --vbr-new -b 32


SOURCES:

VIDEO:Rabbit.Hole.2010.DVDSCREENER.XviD-FRAGMENT     Thanks
AUDIO:Rabbit.Hole.2010.DVDSCREENER.XviD-FRAGMENT     Thanks

NOTES:

IMAGiNE bringing you another release.......... Rabbit.Hole.2010

Once again only source we could find was the xvid so we opted to clean it up a touch.
Ripped seemed to have too much yellow and lacked sharpness.
Fixed what we could and gave it some more life.......just wish we had vobs then we could do even better.
Audio was just took of the original rip and remuxed

Enjoy 